<?xml version="1.0" encoding="UTF-8" standalone="no"?>
<svg width="800" height="600" xmlns="http://www.w3.org/2000/svg">
  <rect width="800" height="600" fill="#f8f9fa"/>

  <!-- Title -->
  <text x="400" y="40" font-family="Arial" font-size="24" text-anchor="middle" font-weight="bold">Toast-cli Architecture</text>
  <text x="400" y="70" font-family="Arial" font-size="16" text-anchor="middle" fill="#6c757d">Plugin-based Design Pattern</text>

  <!-- Main CLI Box -->
  <rect x="200" y="100" width="400" height="80" rx="10" fill="#e9f5ff" stroke="#007bff" stroke-width="2"/>
  <text x="400" y="145" font-family="Arial" font-size="18" text-anchor="middle">Main CLI Application</text>
  <text x="400" y="165" font-family="Arial" font-size="14" text-anchor="middle" fill="#6c757d">(toast/__init__.py)</text>

  <!-- BasePlugin Box -->
  <rect x="250" y="230" width="300" height="70" rx="10" fill="#e9f5ff" stroke="#007bff" stroke-width="2"/>
  <text x="400" y="270" font-family="Arial" font-size="16" text-anchor="middle">BasePlugin</text>
  <text x="400" y="290" font-family="Arial" font-size="12" text-anchor="middle" fill="#6c757d">(plugins/base_plugin.py)</text>

  <!-- Plugin Row 1 -->
  <rect x="80" y="350" width="160" height="50" rx="6" fill="#ffffff" stroke="#007bff" stroke-width="1"/>
  <text x="160" y="380" font-family="Arial" font-size="14" text-anchor="middle">am_plugin.py</text>

  <rect x="250" y="350" width="160" height="50" rx="6" fill="#ffffff" stroke="#007bff" stroke-width="1"/>
  <text x="330" y="380" font-family="Arial" font-size="14" text-anchor="middle">ctx_plugin.py</text>

  <rect x="420" y="350" width="160" height="50" rx="6" fill="#ffffff" stroke="#007bff" stroke-width="1"/>
  <text x="500" y="380" font-family="Arial" font-size="14" text-anchor="middle">env_plugin.py</text>

  <rect x="590" y="350" width="160" height="50" rx="6" fill="#ffffff" stroke="#007bff" stroke-width="1"/>
  <text x="670" y="380" font-family="Arial" font-size="14" text-anchor="middle">git_plugin.py</text>

  <!-- Plugin Row 2 -->
  <rect x="80" y="410" width="160" height="50" rx="6" fill="#ffffff" stroke="#007bff" stroke-width="1"/>
  <text x="160" y="440" font-family="Arial" font-size="14" text-anchor="middle">cdw_plugin.py</text>

  <rect x="250" y="410" width="160" height="50" rx="6" fill="#ffffff" stroke="#007bff" stroke-width="1"/>
  <text x="330" y="440" font-family="Arial" font-size="14" text-anchor="middle">region_plugin.py</text>

  <rect x="420" y="410" width="160" height="50" rx="6" fill="#ffffff" stroke="#007bff" stroke-width="1"/>
  <text x="500" y="440" font-family="Arial" font-size="14" text-anchor="middle">ssm_plugin.py</text>

  <rect x="590" y="410" width="160" height="50" rx="6" fill="#ffffff" stroke="#007bff" stroke-width="1"/>
  <text x="670" y="440" font-family="Arial" font-size="14" text-anchor="middle">update_plugin.py</text>

  <!-- Utils Box -->
  <rect x="250" y="490" width="300" height="50" rx="6" fill="#f8f9fa" stroke="#6c757d" stroke-width="1"/>
  <text x="400" y="520" font-family="Arial" font-size="14" text-anchor="middle">utils.py</text>

  <!-- External Dependency Box -->
  <rect x="40" y="100" width="130" height="180" rx="6" fill="#f8f9fa" stroke="#6c757d" stroke-width="1" stroke-dasharray="5,3"/>
  <text x="105" y="125" font-family="Arial" font-size="14" text-anchor="middle" font-weight="bold">Dependencies</text>
  <text x="105" y="150" font-family="Arial" font-size="12" text-anchor="middle" fill="#6c757d">• Click</text>
  <text x="105" y="170" font-family="Arial" font-size="12" text-anchor="middle" fill="#6c757d">• Python-Dotenv</text>
  <text x="105" y="190" font-family="Arial" font-size="12" text-anchor="middle" fill="#6c757d">• fzf</text>
  <text x="105" y="210" font-family="Arial" font-size="12" text-anchor="middle" fill="#6c757d">• jq</text>
  <text x="105" y="230" font-family="Arial" font-size="12" text-anchor="middle" fill="#6c757d">• aws-cli</text>
  <text x="105" y="250" font-family="Arial" font-size="12" text-anchor="middle" fill="#6c757d">• kubectl</text>

  <!-- External tools box -->
  <rect x="630" y="100" width="130" height="180" rx="6" fill="#f8f9fa" stroke="#6c757d" stroke-width="1" stroke-dasharray="5,3"/>
  <text x="695" y="125" font-family="Arial" font-size="14" text-anchor="middle" font-weight="bold">User Interface</text>
  <text x="695" y="150" font-family="Arial" font-size="12" text-anchor="middle" fill="#6c757d">• CLI commands</text>
  <text x="695" y="170" font-family="Arial" font-size="12" text-anchor="middle" fill="#6c757d">• Interactive</text>
  <text x="695" y="190" font-family="Arial" font-size="12" text-anchor="middle" fill="#6c757d">  selection (fzf)</text>
  <text x="695" y="210" font-family="Arial" font-size="12" text-anchor="middle" fill="#6c757d">• Colorized JSON</text>
  <text x="695" y="230" font-family="Arial" font-size="12" text-anchor="middle" fill="#6c757d">  output (jq)</text>
  <text x="695" y="250" font-family="Arial" font-size="12" text-anchor="middle" fill="#6c757d">• Custom help</text>

  <!-- Arrows -->
  <!-- Main CLI to BasePlugin -->
  <line x1="400" y1="180" x2="400" y2="230" stroke="#007bff" stroke-width="2"/>
  <polygon points="400,230 395,220 405,220" fill="#007bff"/>

  <!-- BasePlugin to Plugin Row -->
  <line x1="400" y1="300" x2="400" y2="345" stroke="#007bff" stroke-width="2"/>
  <polygon points="400,345 395,335 405,335" fill="#007bff"/>
  <line x1="400" y1="325" x2="160" y2="325" stroke="#007bff" stroke-width="2"/>
  <line x1="160" y1="325" x2="160" y2="345" stroke="#007bff" stroke-width="2"/>
  <polygon points="160,345 155,335 165,335" fill="#007bff"/>
  <line x1="400" y1="325" x2="670" y2="325" stroke="#007bff" stroke-width="2"/>
  <line x1="670" y1="325" x2="670" y2="345" stroke="#007bff" stroke-width="2"/>
  <polygon points="670,345 665,335 675,335" fill="#007bff"/>

  <!-- Plugin Row 1 to Row 2 connections -->
  <line x1="160" y1="400" x2="160" y2="410" stroke="#007bff" stroke-width="1"/>
  <line x1="330" y1="400" x2="330" y2="410" stroke="#007bff" stroke-width="1"/>
  <line x1="500" y1="400" x2="500" y2="410" stroke="#007bff" stroke-width="1"/>
  <line x1="670" y1="400" x2="670" y2="410" stroke="#007bff" stroke-width="1"/>

  <!-- Utils Connections -->
  <line x1="400" y1="465" x2="400" y2="485" stroke="#6c757d" stroke-width="1" stroke-dasharray="4,2"/>
  <polygon points="400,485 395,475 405,475" fill="#6c757d"/>

  <!-- External Dependencies to Main CLI -->
  <line x1="170" y1="140" x2="195" y2="140" stroke="#6c757d" stroke-width="1" stroke-dasharray="4,2"/>
  <polygon points="195,140 185,135 185,145" fill="#6c757d"/>

  <!-- Main CLI to UI -->
  <line x1="600" y1="140" x2="625" y2="140" stroke="#6c757d" stroke-width="1" stroke-dasharray="4,2"/>
  <polygon points="625,140 615,135 615,145" fill="#6c757d"/>

  <!-- Legend -->
  <rect x="250" y="560" width="15" height="15" rx="2" fill="#e9f5ff" stroke="#007bff" stroke-width="1"/>
  <text x="275" y="573" font-family="Arial" font-size="12">Core Components</text>

  <rect x="385" y="560" width="15" height="15" rx="2" fill="#ffffff" stroke="#007bff" stroke-width="1"/>
  <text x="410" y="573" font-family="Arial" font-size="12">Plugins</text>

  <rect x="500" y="560" width="15" height="15" rx="2" fill="#f8f9fa" stroke="#6c757d" stroke-width="1" stroke-dasharray="5,3"/>
  <text x="525" y="573" font-family="Arial" font-size="12">External</text>
</svg>
